<svg xmlns="http://www.w3.org/2000/svg" version="1.1" xmlns:xlink="http://www.w3.org/1999/xlink" xmlns:svgjs="http://svgjs.com/svgjs" width="1000" height="1000"><rect width="1000" height="1000" rx="200" ry="200" fill="#555555"></rect><g transform="matrix(13.114754098360656,0,0,13.114754098360656,98.95657761370546,99.56228296873996)"><svg xmlns="http://www.w3.org/2000/svg" version="1.1" xmlns:xlink="http://www.w3.org/1999/xlink" xmlns:svgjs="http://svgjs.com/svgjs" width="61" height="61"><svg version="1.1" id="Calque_1" x="0px" y="0px" viewBox="0 0 61 61.000001" xml:space="preserve" sodipodi:docname="lnds.svg" inkscape:version="1.3 (0e150ed, 2023-07-21)" width="61" height="61" xmlns:inkscape="http://www.inkscape.org/namespaces/inkscape" xmlns:sodipodi="http://sodipodi.sourceforge.net/DTD/sodipodi-0.dtd" xmlns="http://www.w3.org/2000/svg" xmlns:svg="http://www.w3.org/2000/svg"><defs id="defs40"></defs><sodipodi:namedview id="namedview40" pagecolor="#ffffff" bordercolor="#000000" borderopacity="0.25" inkscape:showpageshadow="2" inkscape:pageopacity="0.0" inkscape:pagecheckerboard="0" inkscape:deskcolor="#d1d1d1" showgrid="true" inkscape:zoom="3.0511464" inkscape:cx="141.75" inkscape:cy="54.569653" inkscape:window-width="1392" inkscape:window-height="954" inkscape:window-x="400" inkscape:window-y="64" inkscape:window-maximized="0" inkscape:current-layer="Calque_1"><inkscape:grid id="grid40" units="px" originx="0" originy="0" spacingx="1" spacingy="1" empcolor="#0099e5" empopacity="0.30196078" color="#0099e5" opacity="0.14901961" empspacing="5" dotted="false" gridanglex="30" gridanglez="30" visible="true"></inkscape:grid></sodipodi:namedview>
<style type="text/css" id="style1">
	.st0{fill:#FFF;}
	.st1{display:none;}
	.st2{display:inline;fill:#000;}
	@media (prefers-color-scheme: dark) {
		.st0{fill:#FFF;}
		.st1{display:none;}
		.st2{display:inline;fill:#FFF;}
    }
</style>
<g id="g40" transform="translate(-28.513873,-28.513873)">
	<g id="g39">
		<g id="g5">
			<g id="g4">
				<path class="st0" d="M 51.8,29 C 49.7,29 48,30.7 48,32.8 V 48 H 32.8 c -2.1,0 -3.8,1.7 -3.8,3.8 0,2.1 1.7,3.8 3.8,3.8 h 19 c 2.1,0 3.8,-1.7 3.8,-3.8 v -19 C 55.6,30.7 53.9,29 51.8,29 Z" id="path1"></path>
				<path class="st0" d="m 85.4,62.5 h -19 c -2.1,0 -3.8,1.7 -3.8,3.8 v 19 c 0,2.1 1.7,3.8 3.8,3.8 2.1,0 3.8,-1.7 3.8,-3.8 V 70.2 h 15.2 c 2.1,0 3.8,-1.7 3.8,-3.8 0,-2.2 -1.7,-3.9 -3.8,-3.9 z" id="path2"></path>
				<path class="st0" d="M 55.5,65.3 C 55.5,65.2 55.4,65 55.4,64.9 55.3,64.8 55.3,64.6 55.2,64.5 55.1,64.4 55.1,64.3 55,64.2 54.7,63.8 54.4,63.4 53.9,63.1 53.8,63 53.7,63 53.6,63 c -0.1,-0.1 -0.2,-0.1 -0.4,-0.2 -0.1,-0.1 -0.3,-0.1 -0.4,-0.1 -0.1,0 -0.2,-0.1 -0.3,-0.1 -0.2,0 -0.5,-0.1 -0.7,-0.1 h -19 c -2.1,0 -3.8,1.7 -3.8,3.8 0,2.1 1.7,3.8 3.8,3.8 h 9.8 L 33,79.7 c -1.5,1.5 -1.5,3.9 0,5.4 0.7,0.7 1.7,1.1 2.7,1.1 1,0 2,-0.4 2.7,-1.1 L 48,75.5 v 9.8 c 0,2.1 1.7,3.8 3.8,3.8 2.1,0 3.8,-1.7 3.8,-3.8 v -19 c 0,-0.3 0,-0.5 -0.1,-0.7 0,-0.1 0,-0.2 0,-0.3 z" id="path3"></path>
				<path class="st0" d="m 62.6,52.6 c 0,0.1 0.1,0.2 0.1,0.3 0,0.1 0.1,0.3 0.1,0.4 0.1,0.1 0.1,0.2 0.2,0.4 0.1,0.1 0.1,0.2 0.2,0.3 0.1,0.2 0.3,0.4 0.5,0.6 v 0 0 c 0.2,0.2 0.4,0.3 0.6,0.5 0.1,0.1 0.2,0.1 0.3,0.2 0.1,0.1 0.2,0.1 0.4,0.2 0.1,0.1 0.3,0.1 0.4,0.1 0.1,0 0.2,0.1 0.3,0.1 0.2,0 0.5,0.1 0.7,0.1 h 19 c 2.1,0 3.8,-1.7 3.8,-3.8 0,-2.1 -1.7,-3.8 -3.8,-3.8 h -9.8 l 9.6,-9.6 c 1.5,-1.5 1.5,-3.9 0,-5.4 -1.5,-1.5 -3.9,-1.5 -5.4,0 l -9.6,9.6 V 33 c 0,-2.1 -1.7,-3.8 -3.8,-3.8 -2.1,0 -3.8,1.7 -3.8,3.8 v 19 0 c -0.1,0.1 0,0.3 0,0.6 z" id="path4"></path>
			</g>
		</g>
		<g class="st1" id="g38">
			<g id="g8">
				<path class="st2" d="m 142.8,60.7 c 1.7,0 2.7,0.9 2.7,2.5 0,1.6 -1.1,2.5 -2.7,2.5 H 123 c -1.9,0 -3,-1.1 -3,-3 V 37.5 c 0,-1.9 1,-3 2.8,-3 1.7,0 2.7,1.1 2.7,3 v 23.3 z" id="path5"></path>
				<path class="st2" d="m 180.9,37.4 v 25.3 c 0,2 -1.2,3.4 -3.2,3.4 -1.2,0 -2.3,-0.5 -3.2,-1.6 L 158.2,43.6 h -0.1 v 19.6 c 0,1.8 -1,2.9 -2.7,2.9 -1.7,0 -2.7,-1.1 -2.7,-2.9 V 37.9 c 0,-2 1.3,-3.4 3.2,-3.4 1.2,0 2.3,0.5 3.1,1.6 l 16.4,21 h 0.1 V 37.4 c 0,-1.8 1,-2.9 2.7,-2.9 1.7,0 2.7,1.1 2.7,2.9 z" id="path6"></path>
				<path class="st2" d="m 203,34.8 c 10.6,0 16.8,5.7 16.8,15.5 0,9.8 -6.2,15.5 -16.8,15.5 h -9.3 c -1.8,0 -3,-1.1 -3,-3 V 37.7 c 0,-1.8 1.1,-3 3,-3 z m 0.3,25.9 c 6.8,0 10.9,-3.9 10.9,-10.5 0,-6.6 -4.1,-10.5 -10.9,-10.5 h -7 v 20.9 h 7 z" id="path7"></path>
				<path class="st2" d="m 241.2,47.3 c 9.8,0.1 13.3,2.7 13.3,9 0,6.3 -4.9,10 -13.5,10 -6,0 -10.5,-1.6 -13.1,-4.6 -0.5,-0.6 -0.7,-1.2 -0.7,-2 0,-1.5 1,-2.6 2.6,-2.6 0.7,0 1.3,0.2 1.8,0.6 2.4,2.3 5.6,3.5 9.9,3.5 4.6,0 7.4,-1.8 7.4,-4.8 0,-2.5 -2,-3.6 -8.3,-3.7 -9.5,-0.2 -12.9,-2.7 -12.9,-8.6 0,-6.1 5.2,-10 13.3,-10 4.7,0 8.6,1.3 11.3,3.7 0.5,0.5 0.9,1.1 0.9,2.2 0,1.5 -1,2.5 -2.3,2.5 -0.9,0 -1.5,-0.3 -2,-0.6 -2.4,-1.9 -5,-2.8 -8.3,-2.8 -4.4,0 -7.3,1.9 -7.3,4.8 -0.1,2.5 1.8,3.4 7.9,3.4 z" id="path8"></path>
			</g>
			<g id="g37">
				<path class="st2" d="m 123,86.5 c 0.1,0 0.2,0.1 0.2,0.2 0,0.1 -0.1,0.2 -0.2,0.2 h -2.6 c -0.1,0 -0.2,-0.1 -0.2,-0.2 v -4.9 c 0,-0.1 0.1,-0.2 0.2,-0.2 0.1,0 0.2,0.1 0.2,0.2 v 4.7 c 0,0 2.4,0 2.4,0 z" id="path9"></path>
				<path class="st2" d="m 127.1,81.8 c 0,-0.1 0.1,-0.2 0.2,-0.2 0.1,0 0.2,0.1 0.2,0.2 V 85 c 0,1.3 -0.8,2 -1.9,2 -1.1,0 -1.9,-0.7 -1.9,-2 v -3.2 c 0,-0.1 0.1,-0.2 0.2,-0.2 0.1,0 0.2,0.1 0.2,0.2 V 85 c 0,1 0.5,1.6 1.5,1.6 0.9,0 1.4,-0.6 1.4,-1.6 v -3.2 z" id="path10"></path>
				<path class="st2" d="m 130.5,83.9 1.5,-2.2 c 0,-0.1 0.1,-0.1 0.2,-0.1 0.1,0 0.2,0.1 0.2,0.2 v 0.1 l -1.6,2.4 1.6,2.4 v 0.1 c 0,0.1 -0.1,0.2 -0.2,0.2 -0.1,0 -0.1,0 -0.2,-0.1 l -1.5,-2.2 -1.5,2.2 c 0,0.1 -0.1,0.1 -0.2,0.1 -0.1,0 -0.2,-0.1 -0.2,-0.2 v -0.1 l 1.6,-2.4 -1.6,-2.4 v -0.1 c 0,-0.1 0.1,-0.2 0.2,-0.2 0.1,0 0.2,0 0.2,0.1 z" id="path11"></path>
				<path class="st2" d="m 136.4,86.9 h -2.7 c -0.1,0 -0.2,-0.1 -0.2,-0.2 v -4.8 c 0,-0.1 0.1,-0.2 0.2,-0.2 h 2.6 c 0.1,0 0.2,0.1 0.2,0.2 0,0.1 -0.1,0.2 -0.2,0.2 h -2.4 v 2 h 1.5 c 0.1,0 0.2,0.1 0.2,0.2 0,0.1 -0.1,0.2 -0.2,0.2 h -1.5 v 2.1 h 2.4 c 0.1,0 0.2,0.1 0.2,0.2 0.1,0 0,0.1 -0.1,0.1 z" id="path12"></path>
				<path class="st2" d="m 141.8,81.7 c 0,-0.1 0.1,-0.2 0.2,-0.2 0.1,0 0.2,0.1 0.2,0.2 v 5 c 0,0.1 -0.1,0.2 -0.2,0.2 -0.1,0 -0.2,-0.1 -0.2,-0.2 v -3.9 l -1.7,3.9 c 0,0.1 -0.1,0.2 -0.2,0.2 -0.1,0 -0.2,-0.1 -0.2,-0.2 L 138,82.8 v 3.9 c 0,0.1 -0.1,0.2 -0.2,0.2 -0.1,0 -0.2,-0.1 -0.2,-0.2 v -5 c 0,-0.1 0.1,-0.2 0.2,-0.2 0.1,0 0.2,0.1 0.2,0.2 l 1.9,4.5 z" id="path13"></path>
				<path class="st2" d="m 145.5,86.9 h -1.6 c -0.1,0 -0.2,-0.1 -0.2,-0.2 v -4.8 c 0,-0.1 0.1,-0.2 0.2,-0.2 h 1.4 c 0.9,0 1.5,0.5 1.5,1.3 0,0.5 -0.3,1 -0.8,1.2 0.7,0.1 1.2,0.6 1.2,1.3 0,0.7 -0.6,1.4 -1.7,1.4 z M 145.3,82 h -1.2 v 1.9 h 1.2 c 0.7,0 1.1,-0.5 1.1,-1 0,-0.5 -0.4,-0.9 -1.1,-0.9 z m 0.1,2.3 h -1.3 v 2.1 h 1.4 c 0.8,0 1.2,-0.4 1.2,-1.1 0,-0.5 -0.5,-1 -1.3,-1 z" id="path14"></path>
				<path class="st2" d="m 150.2,81.5 c 1.4,0 2.2,1.2 2.2,2.7 0,1.5 -0.8,2.7 -2.2,2.7 -1.4,0 -2.2,-1.2 -2.2,-2.7 0,-1.5 0.8,-2.7 2.2,-2.7 z m 0,0.4 c -1.2,0 -1.7,1.2 -1.7,2.3 0,1.1 0.5,2.3 1.7,2.3 1.2,0 1.7,-1.2 1.7,-2.3 0,-1.1 -0.5,-2.3 -1.7,-2.3 z" id="path15"></path>
				<path class="st2" d="m 156.8,81.8 c 0,-0.1 0.1,-0.2 0.2,-0.2 0.1,0 0.2,0.1 0.2,0.2 V 85 c 0,1.3 -0.8,2 -1.9,2 -1.1,0 -1.9,-0.7 -1.9,-2 v -3.2 c 0,-0.1 0.1,-0.2 0.2,-0.2 0.1,0 0.2,0.1 0.2,0.2 V 85 c 0,1 0.5,1.6 1.5,1.6 0.9,0 1.4,-0.6 1.4,-1.6 v -3.2 z" id="path16"></path>
				<path class="st2" d="m 158.6,81.8 c 0,-0.1 0.1,-0.2 0.2,-0.2 h 1.7 c 1,0 1.6,0.6 1.6,1.5 0,0.7 -0.4,1.2 -1.1,1.4 l 1.1,2.1 v 0.1 c 0,0.1 -0.1,0.2 -0.2,0.2 -0.1,0 -0.2,-0.1 -0.2,-0.1 l -1.1,-2.3 H 159 v 2.2 c 0,0.1 -0.1,0.2 -0.2,0.2 -0.1,0 -0.2,-0.1 -0.2,-0.2 z m 2,0.2 H 159 v 2.1 h 1.6 c 0.7,0 1.1,-0.4 1.1,-1.1 0,-0.6 -0.4,-1 -1.1,-1 z" id="path17"></path>
				<path class="st2" d="m 167,86.3 c -0.4,0.4 -1,0.7 -1.8,0.7 -1.5,0 -2.2,-1.3 -2.2,-2.7 0,-1.6 0.9,-2.7 2.2,-2.7 0.7,0 1.2,0.3 1.6,0.8 0,0 0.1,0.1 0.1,0.2 0,0.1 -0.1,0.2 -0.2,0.2 -0.1,0 -0.1,0 -0.2,-0.1 -0.3,-0.4 -0.7,-0.6 -1.2,-0.6 -1.1,0 -1.7,1 -1.7,2.3 0,1.3 0.6,2.3 1.8,2.3 0.5,0 1,-0.2 1.4,-0.5 v -1.3 h -1.3 c -0.1,0 -0.2,-0.1 -0.2,-0.2 0,-0.1 0.1,-0.2 0.2,-0.2 h 1.5 c 0.1,0 0.2,0.1 0.2,0.2 v 1.5 c -0.1,0 -0.1,0 -0.2,0.1 z" id="path18"></path>
				<path class="st2" d="m 174,86.9 c -0.1,0 -0.2,-0.1 -0.2,-0.1 L 171,82.5 v 4.2 c 0,0.1 -0.1,0.2 -0.2,0.2 -0.1,0 -0.2,-0.1 -0.2,-0.2 v -5 c 0,-0.1 0.1,-0.2 0.2,-0.2 0.1,0 0.2,0.1 0.2,0.1 l 2.8,4.3 v -4.2 c 0,-0.1 0.1,-0.2 0.2,-0.2 0.1,0 0.2,0.1 0.2,0.2 v 5 c 0,0.1 -0.1,0.2 -0.2,0.2 z" id="path19"></path>
				<path class="st2" d="m 179.5,86.6 v 0 c 0,0.2 -0.1,0.3 -0.2,0.3 -0.1,0 -0.2,-0.1 -0.2,-0.2 l -0.5,-1.3 h -2.4 l -0.5,1.3 c 0,0.1 -0.1,0.2 -0.2,0.2 -0.2,0 -0.2,-0.1 -0.2,-0.2 v -0.1 l 1.9,-4.9 c 0,-0.1 0.1,-0.2 0.2,-0.2 0.1,0 0.2,0.1 0.2,0.2 z m -2.1,-4.4 -1.1,2.8 h 2.1 z" id="path20"></path>
				<path class="st2" d="m 181.6,82 v 4.7 c 0,0.1 -0.1,0.2 -0.2,0.2 -0.1,0 -0.2,-0.1 -0.2,-0.2 V 82 h -1.5 c -0.1,0 -0.2,-0.1 -0.2,-0.2 0,-0.1 0.1,-0.2 0.2,-0.2 h 3.4 c 0.1,0 0.2,0.1 0.2,0.2 0,0.1 -0.1,0.2 -0.2,0.2 z" id="path21"></path>
				<path class="st2" d="m 184.4,86.9 c -0.1,0 -0.2,-0.1 -0.2,-0.2 v -4.9 c 0,-0.1 0.1,-0.2 0.2,-0.2 0.1,0 0.2,0.1 0.2,0.2 v 4.9 c 0,0.1 -0.1,0.2 -0.2,0.2 z" id="path22"></path>
				<path class="st2" d="m 187.9,81.5 c 1.4,0 2.2,1.2 2.2,2.7 0,1.5 -0.8,2.7 -2.2,2.7 -1.4,0 -2.2,-1.2 -2.2,-2.7 0.1,-1.5 0.8,-2.7 2.2,-2.7 z m 0,0.4 c -1.2,0 -1.7,1.2 -1.7,2.3 0,1.1 0.5,2.3 1.7,2.3 1.2,0 1.7,-1.2 1.7,-2.3 0,-1.1 -0.5,-2.3 -1.7,-2.3 z" id="path23"></path>
				<path class="st2" d="m 194.7,86.9 c -0.1,0 -0.2,-0.1 -0.2,-0.1 l -2.8,-4.3 v 4.2 c 0,0.1 -0.1,0.2 -0.2,0.2 -0.1,0 -0.2,-0.1 -0.2,-0.2 v -5 c 0,-0.1 0.1,-0.2 0.2,-0.2 0.1,0 0.2,0.1 0.2,0.1 l 2.8,4.3 v -4.2 c 0,-0.1 0.1,-0.2 0.2,-0.2 0.1,0 0.2,0.1 0.2,0.2 v 5 c 0,0.1 -0.1,0.2 -0.2,0.2 z" id="path24"></path>
				<path class="st2" d="m 200.2,86.6 v 0 c 0,0.2 -0.1,0.3 -0.2,0.3 -0.1,0 -0.2,-0.1 -0.2,-0.2 l -0.5,-1.3 h -2.4 l -0.5,1.3 c 0,0.1 -0.1,0.2 -0.2,0.2 -0.2,0 -0.2,-0.1 -0.2,-0.2 v -0.1 l 1.9,-4.9 c 0,-0.1 0.1,-0.2 0.2,-0.2 0.1,0 0.2,0.1 0.2,0.2 z M 198.1,82.2 197,85 h 2.1 z" id="path25"></path>
				<path class="st2" d="m 204.1,86.5 c 0.1,0 0.2,0.1 0.2,0.2 0,0.1 -0.1,0.2 -0.2,0.2 h -2.6 c -0.1,0 -0.2,-0.1 -0.2,-0.2 v -4.9 c 0,-0.1 0.1,-0.2 0.2,-0.2 0.1,0 0.2,0.1 0.2,0.2 v 4.7 z" id="path26"></path>
				<path class="st2" d="m 208.8,86.9 h -1.2 c -0.1,0 -0.2,-0.1 -0.2,-0.2 v -4.8 c 0,-0.1 0.1,-0.2 0.2,-0.2 h 1.2 c 1.5,0 2.3,1.1 2.3,2.6 0,1.4 -0.8,2.6 -2.3,2.6 z m 0,-4.9 h -0.9 v 4.5 h 0.9 c 1.3,0 1.9,-1 1.9,-2.2 0,-1.2 -0.6,-2.3 -1.9,-2.3 z" id="path27"></path>
				<path class="st2" d="m 215.8,86.6 v 0 c 0,0.2 -0.1,0.3 -0.2,0.3 -0.1,0 -0.2,-0.1 -0.2,-0.2 l -0.5,-1.3 h -2.4 l -0.5,1.3 c 0,0.1 -0.1,0.2 -0.2,0.2 -0.2,0 -0.2,-0.1 -0.2,-0.2 v -0.1 l 1.9,-4.9 c 0,-0.1 0.1,-0.2 0.2,-0.2 0.1,0 0.2,0.1 0.2,0.2 z m -2.1,-4.4 -1.1,2.8 h 2.1 z" id="path28"></path>
				<path class="st2" d="m 217.9,82 v 4.7 c 0,0.1 -0.1,0.2 -0.2,0.2 -0.1,0 -0.2,-0.1 -0.2,-0.2 V 82 H 216 c -0.1,0 -0.2,-0.1 -0.2,-0.2 0,-0.1 0.1,-0.2 0.2,-0.2 h 3.4 c 0.1,0 0.2,0.1 0.2,0.2 0,0.1 -0.1,0.2 -0.2,0.2 z" id="path29"></path>
				<path class="st2" d="m 223.8,86.6 v 0 c 0,0.2 -0.1,0.3 -0.2,0.3 -0.1,0 -0.2,-0.1 -0.2,-0.2 l -0.5,-1.3 h -2.4 l -0.5,1.3 c 0,0.1 -0.1,0.2 -0.2,0.2 -0.2,0 -0.2,-0.1 -0.2,-0.2 v -0.1 l 1.9,-4.9 c 0,-0.1 0.1,-0.2 0.2,-0.2 0.1,0 0.2,0.1 0.2,0.2 z m -2.1,-4.4 -1.1,2.8 h 2.1 z" id="path30"></path>
				<path class="st2" d="m 228.6,87 c -0.7,0 -1.3,-0.3 -1.6,-0.6 -0.1,-0.1 -0.1,-0.1 -0.1,-0.2 0,-0.1 0.1,-0.2 0.2,-0.2 0.1,0 0.1,0 0.2,0.1 0.3,0.3 0.8,0.5 1.4,0.5 0.8,0 1.2,-0.4 1.2,-0.9 0,-0.5 -0.4,-0.8 -1.3,-1.2 -1.2,-0.6 -1.6,-1 -1.6,-1.6 0,-0.8 0.7,-1.3 1.7,-1.3 0.5,0 1,0.1 1.4,0.4 0.1,0.1 0.2,0.1 0.2,0.2 0,0.1 -0.1,0.2 -0.2,0.2 -0.1,0 -0.1,0 -0.2,-0.1 -0.4,-0.3 -0.8,-0.4 -1.2,-0.4 -0.7,0 -1.2,0.2 -1.2,0.9 0,0.5 0.4,0.8 1.3,1.2 1.1,0.6 1.7,0.9 1.7,1.7 -0.2,0.7 -0.9,1.3 -1.9,1.3 z" id="path31"></path>
				<path class="st2" d="m 234.2,86.9 h -2.7 c -0.1,0 -0.2,-0.1 -0.2,-0.2 v -4.8 c 0,-0.1 0.1,-0.2 0.2,-0.2 h 2.6 c 0.1,0 0.2,0.1 0.2,0.2 0,0.1 -0.1,0.2 -0.2,0.2 h -2.4 v 2 h 1.5 c 0.1,0 0.2,0.1 0.2,0.2 0,0.1 -0.1,0.2 -0.2,0.2 h -1.5 v 2.1 h 2.4 c 0.1,0 0.2,0.1 0.2,0.2 0.1,0 0.1,0.1 -0.1,0.1 z" id="path32"></path>
				<path class="st2" d="m 235.5,81.8 c 0,-0.1 0.1,-0.2 0.2,-0.2 h 1.7 c 1,0 1.6,0.6 1.6,1.5 0,0.7 -0.4,1.2 -1.1,1.4 l 1.1,2.1 v 0.1 c 0,0.1 -0.1,0.2 -0.2,0.2 -0.1,0 -0.2,-0.1 -0.2,-0.1 l -1.1,-2.3 H 236 v 2.2 c 0,0.1 -0.1,0.2 -0.2,0.2 -0.1,0 -0.2,-0.1 -0.2,-0.2 v -4.9 z m 2,0.2 h -1.6 v 2.1 h 1.6 c 0.7,0 1.1,-0.4 1.1,-1.1 0,-0.6 -0.4,-1 -1.1,-1 z" id="path33"></path>
				<path class="st2" d="m 241.7,86.1 1.6,-4.4 c 0,-0.1 0.1,-0.2 0.2,-0.2 0.1,0 0.2,0.1 0.2,0.2 v 0.1 l -1.8,4.9 c 0,0.1 -0.1,0.2 -0.2,0.2 -0.1,0 -0.2,-0.1 -0.2,-0.2 l -1.8,-4.9 v -0.1 c 0,-0.1 0.1,-0.2 0.2,-0.2 0.1,0 0.2,0.1 0.2,0.2 z" id="path34"></path>
				<path class="st2" d="m 244.9,86.9 c -0.1,0 -0.2,-0.1 -0.2,-0.2 v -4.9 c 0,-0.1 0.1,-0.2 0.2,-0.2 0.1,0 0.2,0.1 0.2,0.2 v 4.9 c 0,0.1 -0.1,0.2 -0.2,0.2 z" id="path35"></path>
				<path class="st2" d="m 250,82.8 c -0.1,0 -0.1,0 -0.2,-0.1 -0.3,-0.5 -0.7,-0.8 -1.3,-0.8 -1.1,0 -1.7,1.1 -1.7,2.3 0,1.3 0.6,2.3 1.7,2.3 0.6,0 1,-0.3 1.3,-0.8 0,-0.1 0.1,-0.1 0.2,-0.1 0.1,0 0.2,0.1 0.2,0.2 0,0.1 0,0.1 -0.1,0.2 -0.4,0.6 -0.9,0.9 -1.6,0.9 -1.4,0 -2.2,-1.2 -2.2,-2.7 0,-1.5 0.8,-2.7 2.2,-2.7 0.7,0 1.3,0.4 1.6,0.9 0,0 0.1,0.1 0.1,0.2 0,0.1 -0.1,0.2 -0.2,0.2 z" id="path36"></path>
				<path class="st2" d="m 254.1,86.9 h -2.7 c -0.1,0 -0.2,-0.1 -0.2,-0.2 v -4.8 c 0,-0.1 0.1,-0.2 0.2,-0.2 h 2.6 c 0.1,0 0.2,0.1 0.2,0.2 0,0.1 -0.1,0.2 -0.2,0.2 h -2.4 v 2 h 1.5 c 0.1,0 0.2,0.1 0.2,0.2 0,0.1 -0.1,0.2 -0.2,0.2 h -1.5 v 2.1 h 2.4 c 0.1,0 0.2,0.1 0.2,0.2 0.1,0 0,0.1 -0.1,0.1 z" id="path37"></path>
			</g>
		</g>
	</g>
</g>
</svg></svg></g></svg>
