<?xml version="1.0" encoding="UTF-8"?><svg id="Calque_1" xmlns="http://www.w3.org/2000/svg" viewBox="0 0 283.46 283.46"><defs><style>.cls-1{fill:none;}.cls-1,.cls-2,.cls-3,.cls-4,.cls-5{stroke-width:0px;}.cls-2{fill:#4eaedc;}.cls-3{fill:#e51f26;}.cls-4{fill:#d2d9db;}.cls-5{fill:#b5bfc4;}</style></defs><g id="partners"><path id="Tracé_3147" class="cls-5" d="m247.06,136.38h-33.76c6.36,11.01,2.59,25.09-8.42,31.45-2.17,1.25-4.52,2.14-6.97,2.64-1.49.29-3,.44-4.52.44-12.71.02-23.03-10.27-23.05-22.98,0-4.04,1.05-8.01,3.07-11.52l-29.92-.02v29.92c-.01,2.78-1.51,5.35-3.93,6.73-2.31,1.36-5.18,1.36-7.5,0-7.31-4.29-16.71-1.85-21.01,5.46-.85,1.45-1.46,3.03-1.8,4.68-1.57,8.47,4.02,16.6,12.49,18.17.84.16,1.7.24,2.56.26,2.69,0,5.34-.71,7.67-2.05,2.41-1.39,5.37-1.41,7.79-.04,2.34,1.33,3.77,3.83,3.74,6.52v33.93h92.05c6.36,0,11.51-5.15,11.51-11.51h0v-92.07Z"/><path id="Tracé_3148" class="cls-2" d="m247.06,36.64c0-6.36-5.15-11.51-11.51-11.51h0s-92.07,0-92.07,0v33.76c11.01-6.35,25.09-2.57,31.44,8.44,6.35,11.01,2.57,25.09-8.44,31.44-7.11,4.1-15.86,4.1-22.97.02v30l30.08-.07c2.69-.03,5.19,1.4,6.52,3.74,1.37,2.42,1.36,5.39-.04,7.79-1.35,2.32-2.06,4.96-2.07,7.65.13,8.59,7.2,15.45,15.78,15.32.89-.01,1.78-.1,2.65-.27,8.3-1.71,13.65-9.82,11.94-18.12-.34-1.65-.95-3.24-1.81-4.69-1.37-2.31-1.37-5.18-.02-7.5,1.38-2.42,3.95-3.92,6.74-3.93h33.76V36.64Z"/><path id="Tracé_3149" class="cls-4" d="m32.24,128.71h33.95c-2.15-3.45-3.28-7.44-3.26-11.51,0-12.71,10.29-23.03,23-23.04s23.03,10.29,23.04,23c0,4.11-1.1,8.15-3.18,11.69l30.1-.07-.07-30.19c-.03-2.69,1.4-5.19,3.74-6.52,2.42-1.37,5.39-1.35,7.79.04,6.49,3.73,14.73,2.24,19.49-3.54,5.31-6.77,4.13-16.56-2.64-21.87-1.78-1.4-3.84-2.39-6.05-2.91-3.74-.79-7.64-.15-10.93,1.8-2.31,1.37-5.18,1.37-7.5.02-2.42-1.38-3.91-3.94-3.93-6.72V25.14H43.75c-6.36,0-11.51,5.15-11.51,11.51v92.07Z"/><path id="Tracé_3150" class="cls-3" d="m32.24,228.45c0,6.36,5.15,11.51,11.51,11.51h92.07v-33.95c-3.45,2.15-7.44,3.28-11.51,3.26-12.71.02-23.03-10.28-23.05-22.99-.02-12.71,10.28-23.03,22.99-23.05,4.12,0,8.17,1.1,11.72,3.19l-.07-30.03h-30.01c-2.78-.01-5.35-1.51-6.73-3.93-1.36-2.31-1.36-5.18,0-7.5,4.3-7.31,1.86-16.71-5.44-21.01-1.45-.85-3.04-1.46-4.69-1.8-8.43-1.6-16.56,3.93-18.16,12.36h0c-.69,3.55-.06,7.23,1.78,10.35,1.4,2.41,1.41,5.37.04,7.79-1.33,2.34-3.83,3.77-6.52,3.74h-33.93v92.06Z"/><rect id="Rectangle_374" class="cls-1" x="32.24" y="25.14" width="213.73" height="213.73"/></g></svg>