<?xml version="1.0" encoding="UTF-8"?><svg id="Calque_1" xmlns="http://www.w3.org/2000/svg" viewBox="0 0 283.46 283.46"><defs><style>.cls-1{fill:#4eaedc;}.cls-1,.cls-2{stroke-width:0px;}.cls-2{fill:#d2d9db;}</style></defs><g id="infra"><path id="Tracé_339" class="cls-2" d="m255.82,125.69c-.29-5.26-1.79-10.39-4.4-14.97v-.16c-2.18-3.62-4.99-6.81-8.3-9.44-.18-18.93-12.86-35.46-31.1-40.53-9.45-19.23-29.02-31.42-50.45-31.41h-.16c-20.82,0-39.98,11.36-49.96,29.62h-3.42c-21.91.02-41.01,14.9-46.39,36.13-17.34,4.84-27.48,22.82-22.63,40.17,0,.01,0,.02.01.04,1.49,5.36,4.35,10.24,8.3,14.16,5.59,5.97,13.18,9.68,21.32,10.42h5.22c1.8,0,3.25-1.46,3.25-3.25v-42.65c0-3.41,2.76-6.18,6.18-6.19h127.13c3.41,0,6.18,2.77,6.18,6.18h0v42.65c0,1.8,1.46,3.25,3.25,3.25h4.88c17.81-.62,31.73-15.56,31.11-33.37,0-.22-.02-.43-.03-.65Z"/><path id="Tracé_340" class="cls-1" d="m135.37,117.22h-42.81c-3.59.01-6.5,2.92-6.51,6.51v76.98c-.05,1.84,1.41,3.37,3.25,3.42.05,0,.11,0,.16,0h15.14c1.02-.02,1.98-.5,2.61-1.3,2.67-3.34,7.41-4.18,11.07-1.95.95.46,1.78,1.13,2.44,1.95.63.8,1.59,1.28,2.61,1.3h15.14c1.84.05,3.37-1.41,3.42-3.25,0-.05,0-.11,0-.16v-76.98c.15-3.44-2.51-6.36-5.95-6.51-.19,0-.37,0-.56,0h-.01Zm-4.88,25.38h-33.05c-1.84.05-3.37-1.41-3.42-3.25,0-.05,0-.11,0-.16v-2.75c-.05-1.84,1.41-3.37,3.25-3.42.05,0,.11,0,.16,0h33.04c1.84-.05,3.37,1.41,3.42,3.25,0,.05,0,.11,0,.16v2.77c-.02,1.87-1.54,3.39-3.41,3.4Z"/><path id="Tracé_341" class="cls-1" d="m123.49,212.77c-1.02.02-1.98.5-2.61,1.3-2.67,3.34-7.41,4.18-11.07,1.95-.95-.46-1.78-1.13-2.44-1.95-.63-.8-1.59-1.28-2.61-1.3h-15.13c-1.84-.05-3.37,1.41-3.42,3.25,0,.05,0,.11,0,.16v20.51c.01,3.59,2.92,6.5,6.51,6.51h42.64c3.59-.01,6.5-2.92,6.51-6.51v-20.51c.05-1.84-1.41-3.37-3.25-3.42-.05,0-.11,0-.16,0h-14.97Z"/><path id="Tracé_342" class="cls-1" d="m201.45,117.22h-42.64c-3.59.01-6.5,2.92-6.51,6.51v76.98c-.05,1.84,1.41,3.37,3.25,3.42.05,0,.11,0,.16,0h15.14c1.02-.02,1.98-.5,2.61-1.3,2.67-3.34,7.41-4.18,11.07-1.95.95.46,1.78,1.13,2.44,1.95.63.8,1.59,1.28,2.61,1.3h15.14c1.84.05,3.37-1.41,3.42-3.25,0-.05,0-.11,0-.16v-76.98c-.09-3.62-3.05-6.51-6.67-6.51h-.01Zm-4.88,25.38h-33.04c-1.84.05-3.37-1.41-3.42-3.25,0-.05,0-.11,0-.16v-2.75c-.05-1.84,1.41-3.37,3.25-3.42.05,0,.11,0,.16,0h33.04c1.84-.05,3.37,1.41,3.42,3.25,0,.05,0,.11,0,.16v2.77c-.02,1.88-1.54,3.39-3.42,3.4Z"/><path id="Tracé_343" class="cls-1" d="m189.57,212.77c-1.02.02-1.98.5-2.61,1.3-2.68,3.31-7.36,4.2-11.07,2.12-.95-.52-1.79-1.25-2.44-2.12-.63-.8-1.59-1.28-2.61-1.3h-15.14c-1.84-.05-3.37,1.41-3.42,3.25,0,.05,0,.11,0,.16v20.51c.01,3.59,2.92,6.5,6.51,6.51h42.81c3.59-.01,6.5-2.92,6.51-6.51v-20.51c.04-1.84-1.41-3.37-3.26-3.42-.05,0-.1,0-.14,0h-15.15Z"/></g></svg>