<?xml version="1.0" encoding="UTF-8"?>
<svg version="1.1" xmlns="http://www.w3.org/2000/svg" width="552" height="553">
<path d="M0 0 C1.08071777 -0.00700928 2.16143555 -0.01401855 3.27490234 -0.02124023 C6.82936683 -0.0387729 10.38302812 -0.02721354 13.9375 -0.01367188 C16.4179703 -0.01636813 18.89843956 -0.02025166 21.37890625 -0.02526855 C26.57041515 -0.03115723 31.76164823 -0.02262052 36.953125 -0.00390625 C43.59763546 0.01888237 50.24149956 0.00575599 56.88598633 -0.01819611 C62.00590865 -0.0326708 67.12567848 -0.0280403 72.24560547 -0.01768494 C74.69515052 -0.0150223 77.14470956 -0.01827105 79.59423828 -0.02760315 C83.02153031 -0.03779574 86.44778495 -0.0222281 89.875 0 C91.38392822 -0.01214539 91.38392822 -0.01214539 92.92333984 -0.02453613 C100.08453921 0.06122673 105.47544515 1.53005203 110.9609375 6.26367188 C111.62996094 7.10091797 111.62996094 7.10091797 112.3125 7.95507812 C113.00472656 8.78845703 113.00472656 8.78845703 113.7109375 9.63867188 C117.41397497 15.31115922 117.23958409 20.63155526 117.24389648 27.20776367 C117.25222 28.28483078 117.26054352 29.36189789 117.26911926 30.47160339 C117.29321472 34.03253802 117.30199179 37.59328936 117.30859375 41.15429688 C117.31756175 43.63426264 117.32668363 46.11422785 117.33595276 48.5941925 C117.35244503 53.79514886 117.36014309 58.99604084 117.36303711 64.19702148 C117.36841518 70.84705831 117.40607142 77.49647075 117.45178127 84.14636517 C117.48159243 89.27063683 117.4887616 94.39476271 117.48976326 99.51911354 C117.49395891 101.96982418 117.50636669 104.42053552 117.52728081 106.87116051 C117.55427215 110.30802921 117.54934493 113.74349775 117.53686523 117.18041992 C117.55911667 118.68563202 117.55911667 118.68563202 117.58181763 120.22125244 C117.50970837 127.2293874 115.92079445 132.6878857 111.9375 138.51757812 C106.19353959 144.00414896 100.67413295 144.88878194 93.01171875 144.78710938 C87.55168778 144.30840272 83.89992396 142.61312056 80.15234375 138.61132812 C76.07028233 133.43878695 74.83989275 129.69244933 74.73217773 123.10644531 C74.7022599 121.48521759 74.7022599 121.48521759 74.67173767 119.83123779 C74.65502518 118.67069885 74.63831268 117.51015991 74.62109375 116.31445312 C74.60031265 115.12152649 74.57953156 113.92859985 74.55812073 112.69952393 C74.49273761 108.8889339 74.43379224 105.07827499 74.375 101.26757812 C74.33180411 98.68423767 74.28818948 96.10090418 74.24414062 93.51757812 C74.13706766 87.1843176 74.03528028 80.85098856 73.9375 74.51757812 C73.33694794 75.12257141 72.73639587 75.7275647 72.11764526 76.35089111 C66.44413467 82.06455379 60.7657662 87.77333465 55.08195305 93.47674942 C52.16035077 96.40876799 49.24062961 99.34260896 46.32519531 102.28076172 C43.50911125 105.11865103 40.68810306 107.95155989 37.86368179 110.78115082 C36.78950026 111.85901433 35.71707413 112.93863033 34.64648056 114.02005768 C33.14123019 115.53992506 31.62973449 117.05331731 30.11669922 118.56542969 C29.25954315 119.42702698 28.40238708 120.28862427 27.51925659 121.17633057 C20.52015425 127.52341663 15.32772027 128.84336178 6.09765625 128.72070312 C-0.03169134 128.32672775 -2.88074671 125.88955758 -6.875 121.51757812 C-10.621741 117.15051576 -11.23339227 113.92061174 -11.3125 108.20507812 C-11.33828125 107.09519531 -11.3640625 105.9853125 -11.390625 104.84179688 C-10.75593345 98.41176703 -7.41664794 94.49869351 -2.94848633 90.06298828 C-2.1870507 89.30089554 -2.1870507 89.30089554 -1.41023254 88.52340698 C0.25465051 86.86059922 1.92987383 85.20864755 3.60546875 83.55664062 C4.76768885 82.40002095 5.92924451 81.24273328 7.09016418 80.08480835 C10.13642081 77.04996524 13.19158052 74.02424271 16.24871826 71.00036621 C19.37113692 67.90872381 22.48500178 64.80849221 25.59960938 61.70898438 C31.70392648 55.63676976 37.81768121 49.57416903 43.9375 43.51757812 C43.25369263 43.5139325 42.56988525 43.51028687 41.86535645 43.50653076 C34.72695329 43.46461334 27.58918754 43.39520216 20.45117188 43.31005859 C17.78958389 43.27970289 15.1285998 43.26065699 12.46679688 43.24658203 C8.63368357 43.22509597 4.80156398 43.17841249 0.96875 43.12695312 C-0.21489136 43.12572449 -1.39853271 43.12449585 -2.61804199 43.12322998 C-10.39299696 42.98641291 -16.3581718 42.17973181 -22.12109375 36.48242188 C-22.80365234 35.47888672 -22.80365234 35.47888672 -23.5 34.45507812 C-24.20962891 33.44767578 -24.20962891 33.44767578 -24.93359375 32.41992188 C-28.01466256 27.22794779 -27.48833314 21.35536341 -27.0625 15.51757812 C-24.9934829 9.5283181 -21.084913 5.46180833 -15.578125 2.40148926 C-10.44272544 -0.08494176 -5.62050406 -0.04523952 0 0 Z " fill="#A6B6BF" transform="translate(141.0625,293.482421875)"/>
<path d="M0 0 C4.3862 3.25076525 6.50907466 7.55066149 8.203125 12.6328125 C8.31903948 14.42684305 8.37965371 16.22467606 8.40844727 18.0222168 C8.4383651 19.67358894 8.4383651 19.67358894 8.46888733 21.35832214 C8.48559982 22.54589615 8.50231232 23.73347015 8.51953125 24.95703125 C8.54031235 26.17356888 8.56109344 27.39010651 8.58250427 28.64350891 C8.64797217 32.53571846 8.70687215 36.42799635 8.765625 40.3203125 C8.80881282 42.95638732 8.8524272 45.59245519 8.89648438 48.22851562 C9.00365078 54.69654201 9.10542245 61.16463661 9.203125 67.6328125 C9.85600998 66.97326569 10.50889496 66.31371887 11.18156433 65.63418579 C17.33853655 59.41707911 23.5027191 53.2072319 29.67508984 47.00541115 C32.84804207 43.81680936 36.01814583 40.62547993 39.18188477 37.42773438 C42.23570313 34.34129778 45.29681164 31.26226749 48.36309242 28.18821335 C49.53109141 27.01467533 50.69644858 25.83850179 51.85909081 24.65965652 C53.48921248 23.00772831 55.12851361 21.36545838 56.77026367 19.72509766 C57.48668282 18.99249977 57.48668282 18.99249977 58.21757507 18.24510193 C62.93440005 13.57123443 66.97013253 12.32857402 73.515625 12.1953125 C79.70524352 12.29333813 83.60890169 13.48099588 88.203125 17.6328125 C92.78093571 22.57202932 94.49203539 26.26118274 94.515625 33.0078125 C94.53238281 34.10867187 94.54914063 35.20953125 94.56640625 36.34375 C93.92451427 42.15528818 91.04192741 46.16169769 87.14477539 50.37255859 C86.34629181 51.2353241 85.54780823 52.0980896 84.72512817 52.98699951 C80.59273608 57.3222584 76.38418647 61.57454052 72.13671875 65.796875 C71.21721939 66.71495941 70.29772003 67.63304382 69.35035706 68.57894897 C66.94097933 70.98456287 64.52861157 73.38715513 62.11553955 75.7890625 C59.63961355 78.25464013 57.1666223 80.72315776 54.69335938 83.19140625 C49.86609856 88.00803839 45.03566257 92.8214747 40.203125 97.6328125 C40.857435 97.63423752 41.511745 97.63566254 42.18588257 97.63713074 C49.03270706 97.65690809 55.87864966 97.71135395 62.72509766 97.78540039 C65.27581441 97.80851232 67.82662568 97.82296001 70.37744141 97.82836914 C74.05690957 97.83770789 77.734905 97.87881069 81.4140625 97.92578125 C82.54363373 97.9218486 83.67320496 97.91791595 84.83700562 97.91386414 C92.19014117 98.04755813 98.14607735 99.25652365 104.203125 103.6328125 C109.78568299 110.40268033 111.01943056 116.99653627 110.203125 125.6328125 C108.59739621 131.62616964 105.14649437 134.96051453 100.203125 138.50390625 C96.72935038 140.46468919 93.4806529 140.75956071 89.53744507 140.78671265 C88.60401276 140.79531311 87.67058044 140.80391357 86.7088623 140.81277466 C85.18307556 140.81916458 85.18307556 140.81916458 83.62646484 140.82568359 C82.54954376 140.83386108 81.47262268 140.84203857 80.36306763 140.85046387 C76.7967382 140.87528861 73.23044855 140.89182771 69.6640625 140.90625 C68.44456532 140.91157368 67.22506813 140.91689735 65.96861649 140.92238235 C59.51212442 140.94910293 53.0556516 140.96848023 46.59912109 140.98291016 C41.26235143 140.99525732 35.9259866 141.02408525 30.58935547 141.06494141 C24.13969097 141.11431661 17.69037353 141.13903757 11.24052811 141.14613724 C8.78701617 141.15284047 6.33351169 141.16803814 3.88010788 141.19202805 C0.43838197 141.22375836 -3.00201299 141.2237036 -6.44384766 141.21630859 C-7.44889343 141.23271393 -8.45393921 141.24911926 -9.48944092 141.26602173 C-16.4604619 141.20500396 -22.04438085 139.70050577 -27.796875 135.6328125 C-31.70884851 130.90301895 -33.9082167 126.27508399 -33.95077515 120.08738708 C-33.95937561 119.15532944 -33.96797607 118.22327179 -33.97683716 117.26296997 C-33.98109711 116.24218353 -33.98535706 115.22139709 -33.98974609 114.16967773 C-33.99792358 113.09290268 -34.00610107 112.01612762 -34.01452637 110.90672302 C-34.0393841 107.33495642 -34.05589985 103.76322965 -34.0703125 100.19140625 C-34.07563618 98.97099199 -34.08095985 97.75057774 -34.08644485 96.49318123 C-34.11318149 90.03020989 -34.13255247 83.56725788 -34.14697266 77.10424805 C-34.1623683 70.43847022 -34.20835589 63.77325701 -34.2593441 57.1076498 C-34.29305718 51.97481236 -34.30455476 46.84209203 -34.31019974 41.70915413 C-34.31690374 39.25285115 -34.33210344 36.79655564 -34.35609055 34.34036064 C-34.38782233 30.89373661 -34.3877657 27.44844164 -34.38037109 24.00170898 C-34.39677643 22.99509216 -34.41318176 21.98847534 -34.43008423 20.95135498 C-34.35895753 12.81307419 -32.12103741 6.04220984 -26.359375 0.1328125 C-17.61802204 -4.98407704 -8.80299564 -4.84441584 0 0 Z " fill="#C7D1D6" transform="translate(327.796875,117.3671875)"/>
<path d="M0 0 C1.61560066 -0.01248528 1.61560066 -0.01248528 3.26383972 -0.02522278 C6.82477435 -0.04931823 10.38552569 -0.0580953 13.9465332 -0.06469727 C16.42649897 -0.07366527 18.90646418 -0.08278715 21.38642883 -0.09205627 C26.58738519 -0.10854854 31.78827717 -0.11624661 36.98925781 -0.11914062 C43.63929464 -0.1245187 50.28870708 -0.16217493 56.93860149 -0.20788479 C62.06287316 -0.23769594 67.18699904 -0.24486511 72.31134987 -0.24586678 C74.76206051 -0.25006243 77.21277185 -0.26247021 79.66339684 -0.28338432 C83.10026554 -0.31037566 86.53573407 -0.30544845 89.97265625 -0.29296875 C90.97613098 -0.30780304 91.97960571 -0.32263733 93.01348877 -0.33792114 C99.97712361 -0.26626976 105.56250403 1.24499024 111.30981445 5.30639648 C116.89974875 12.06449874 118.12526836 18.67913051 117.30981445 27.30639648 C115.70408566 33.29975362 112.25318382 36.63409852 107.30981445 40.17749023 C102.77649513 42.73633649 98.03894783 42.44303706 92.96118164 42.41992188 C91.70209488 42.42014091 91.70209488 42.42014091 90.41757202 42.42036438 C87.64725141 42.41966855 84.8769983 42.41189155 82.10668945 42.40405273 C80.18426551 42.40218738 78.26184109 42.40076403 76.3394165 42.39976501 C71.28253871 42.39594905 66.22568968 42.38612661 61.16882324 42.37506104 C56.00749094 42.36482713 50.84615398 42.36026315 45.68481445 42.35522461 C35.55980182 42.34450353 25.43481053 42.32743814 15.30981445 42.30639648 C15.32646904 43.88920914 15.32646904 43.88920914 15.34346008 45.5039978 C15.44509014 55.47833254 15.51990138 65.45256137 15.56887531 75.42729759 C15.59490044 80.55469828 15.63016847 85.6816789 15.68701172 90.80883789 C15.74158491 95.76259072 15.77128821 100.71594108 15.78420067 105.66997147 C15.79339529 107.55412755 15.81134996 109.43826314 15.83846474 111.32224655 C16.11086372 131.04442701 16.11086372 131.04442701 10.30981445 138.30639648 C4.49419181 143.75158357 -0.9056827 144.67823548 -8.6159668 144.57592773 C-14.07599776 144.09722108 -17.72776159 142.40193892 -21.4753418 138.40014648 C-25.33200908 133.51321111 -26.80450066 129.86901439 -26.83735657 123.6272583 C-26.84451187 122.69093567 -26.85166718 121.75461304 -26.85903931 120.78991699 C-26.86172821 119.76958374 -26.86441711 118.74925049 -26.8671875 117.69799805 C-26.8737587 116.61786438 -26.8803299 115.53773071 -26.88710022 114.42486572 C-26.90681726 110.84891693 -26.91849198 107.27301009 -26.9284668 103.69702148 C-26.93254232 102.475028 -26.93661785 101.25303452 -26.94081688 99.99401093 C-26.96167023 93.5268521 -26.97597549 87.05971446 -26.98535156 80.5925293 C-26.99541004 73.91657748 -27.03082287 67.24100501 -27.07052326 60.56515884 C-27.0966789 55.42811466 -27.10504247 50.29115002 -27.10863304 45.1540451 C-27.11350121 42.69331359 -27.12512165 40.23258567 -27.14367104 37.77191925 C-27.1680403 34.32513574 -27.16710102 30.87921649 -27.16015625 27.43237305 C-27.17296631 26.42013672 -27.18577637 25.40790039 -27.19897461 24.36499023 C-27.14626552 17.1719381 -25.6982378 11.7922378 -20.9440918 6.28295898 C-20.38592773 5.83694336 -19.82776367 5.39092773 -19.25268555 4.93139648 C-18.69709961 4.46991211 -18.14151367 4.00842773 -17.5690918 3.53295898 C-11.89660446 -0.17007849 -6.57620841 0.0043124 0 0 Z " fill="#45ADD9" transform="translate(320.690185546875,293.693603515625)"/>
<path d="M0 0 C4.3862 3.25076525 6.50907466 7.55066149 8.203125 12.6328125 C8.30228057 14.14557638 8.34659841 15.66226375 8.35702515 17.17823792 C8.36562561 18.11029556 8.37422607 19.04235321 8.38308716 20.00265503 C8.38947708 21.53383469 8.38947708 21.53383469 8.39599609 23.09594727 C8.40826233 24.71110985 8.40826233 24.71110985 8.42077637 26.35890198 C8.4456341 29.93066858 8.46214985 33.50239535 8.4765625 37.07421875 C8.48188618 38.29463301 8.48720985 39.51504726 8.49269485 40.77244377 C8.51943149 47.23541511 8.53880247 53.69836712 8.55322266 60.16137695 C8.5686183 66.82715478 8.61460589 73.49236799 8.6655941 80.1579752 C8.69930718 85.29081264 8.71080476 90.42353297 8.71644974 95.55647087 C8.72315374 98.01277385 8.73835344 100.46906936 8.76234055 102.92526436 C8.79407233 106.37188839 8.7940157 109.81718336 8.78662109 113.26391602 C8.80302643 114.27053284 8.81943176 115.27714966 8.83633423 116.31427002 C8.77537064 123.2896923 7.27437178 128.87683179 3.203125 134.6328125 C-1.54808915 138.56236303 -6.17974666 140.74760472 -12.39372253 140.77998352 C-13.80876572 140.79071648 -13.80876572 140.79071648 -15.25239563 140.80166626 C-16.80231453 140.80569962 -16.80231453 140.80569962 -18.38354492 140.80981445 C-19.47328613 140.81638565 -20.56302734 140.82295685 -21.68579102 140.82972717 C-25.2996426 140.84947092 -28.9134526 140.86112569 -32.52734375 140.87109375 C-33.76128687 140.87516928 -34.99522999 140.8792448 -36.26656532 140.88344383 C-42.12491447 140.90215798 -47.98324727 140.91672195 -53.84162062 140.9250558 C-60.59160925 140.93481779 -67.34126905 140.96111126 -74.09114188 141.00155669 C-79.94680336 141.03543269 -85.80235521 141.04720723 -91.65810585 141.05125999 C-94.14395692 141.05612898 -96.6298044 141.06775173 -99.11559105 141.08629799 C-102.59840354 141.11066614 -106.08036063 141.109728 -109.56323242 141.1027832 C-110.58639053 141.11559326 -111.60954865 141.12840332 -112.66371155 141.14160156 C-119.89351974 141.08916867 -125.59720294 139.79605565 -130.85546875 134.59765625 C-131.31050781 133.92863281 -131.76554687 133.25960937 -132.234375 132.5703125 C-132.94400391 131.56291016 -132.94400391 131.56291016 -133.66796875 130.53515625 C-136.74903756 125.34318217 -136.22270814 119.47059778 -135.796875 113.6328125 C-133.70557515 107.57904977 -129.77276698 103.53011573 -124.17126465 100.51275635 C-119.7003144 98.34465792 -115.90213811 98.08768398 -110.99414062 98.17871094 C-110.15416534 98.17812683 -109.31419006 98.17754272 -108.44876099 98.17694092 C-105.69978056 98.17970558 -102.95191365 98.21071963 -100.203125 98.2421875 C-98.28642367 98.24965567 -96.36971465 98.25534588 -94.45300293 98.25933838 C-89.42885953 98.27454933 -84.40518487 98.31379174 -79.38122559 98.3581543 C-74.24640237 98.39920524 -69.11150281 98.41737032 -63.9765625 98.4375 C-53.91646168 98.48029062 -43.85670745 98.54848659 -33.796875 98.6328125 C-33.80797806 97.57760406 -33.81908112 96.52239563 -33.83052063 95.43521118 C-33.93215068 85.46087644 -34.00696193 75.48664761 -34.05593586 65.51191139 C-34.08196099 60.38451071 -34.11722901 55.25753008 -34.17407227 50.13037109 C-34.22864546 45.17661827 -34.25834875 40.2232679 -34.27126122 35.26923752 C-34.28045583 33.38508143 -34.2984105 31.50094584 -34.32552528 29.61696243 C-34.59252287 10.28585267 -34.59252287 10.28585267 -28.796875 2.6328125 C-20.85506235 -5.51263637 -9.45994189 -5.20594286 0 0 Z " fill="#EE2830" transform="translate(249.796875,117.3671875)"/>
</svg>
